<?xml version="1.0" standalone="no"?>
<!DOCTYPE svg PUBLIC "-//W3C//DTD SVG 20010904//EN"
 "http://www.w3.org/TR/2001/REC-SVG-20010904/DTD/svg10.dtd">
<svg version="1.0" xmlns="http://www.w3.org/2000/svg"
 width="419.000000pt" height="419.000000pt" viewBox="0 0 419.000000 419.000000"
 preserveAspectRatio="xMidYMid meet">
<metadata>
Created by potrace 1.14, written by Peter Selinger 2001-2017
</metadata>
<g transform="translate(0.000000,419.000000) scale(0.100000,-0.100000)"
fill="#000000" stroke="none">
<path d="M763 4170 c-179 -47 -345 -144 -474 -277 -128 -131 -209 -274 -262
-461 -22 -77 -22 -79 -25 -1282 -3 -1280 -3 -1292 45 -1445 86 -277 313 -523
584 -632 33 -13 97 -34 142 -46 l82 -22 1240 0 1240 0 82 22 c205 55 322 122
473 273 149 149 214 261 273 468 l22 77 3 1205 c2 864 0 1228 -8 1285 -58 401
-359 734 -757 836 -73 18 -121 19 -1332 18 -1195 0 -1259 -1 -1328 -19z"/>
</g>
</svg>
