<?xml version="1.0" standalone="yes"?>
<svg xmlns="http://www.w3.org/2000/svg" width="1629" height="484">
<path style="fill:#030303; stroke:none;" d="M52 52L52 65L97 65L97 386L50 386L50 399L168 399L197 399L206 399L208 399L209 399L211 398.972L212 398.917L214 398.611L215 398.389L216 398.222L217 398.056L218 397.944L220 397.611L222 397.139L223 396.861L224 396.639L225 396.361L226 396.139L228 395.611L230 395L232 394.333L235 393.333L237 392.667L238 392.333L239 391.972L240 391.611L242 390.75L243 390.222L244 389.778L245 389.222L246 388.778L247 388.222L248 387.778L249 387.222L250 386.75L252 385.611L253 384.972L255 383.667L257 382.389L258 381.806L260 380.528L261 379.778L262 379L264 377.389L265 376.611L266.972 375L267.917 374.194L269.611 372.611L270.389 371.778L272.083 369.972L273.917 368L275.583 366L276.306 365L277.667 363L278.333 362L280.333 359L281.667 357L282.333 356L283.611 354L284.167 353L284.75 352L285.222 351L286.222 349L286.778 348L287.222 347L287.778 346L288.222 345L289.222 343L289.75 342L290.167 341L290.611 340L290.972 339L291.333 338L292 336L292.667 334L293 333L293.583 331L293.806 330L294.194 328L294.611 326L294.944 324L295.056 323L295.389 321L295.611 320L295.917 318L295.972 317L296 316L296 315L296 313L296.028 311L296.083 310L296.389 308L296.694 306L296.694 305L296.583 304L296.222 302L296.028 300L296 298L296 296L296 295L295.972 293L295.917 292L295.611 290L295.389 289L295.194 288L294.806 286L294.611 285L294.389 284L294 282L293.583 280L293 278L292.333 276L291.333 273L290.667 271L290.333 270L289.611 268L289.167 267L288.75 266L287.778 264L287.222 263L286.778 262L286.222 261L285.75 260L284.611 258L283.972 257L283.333 256L282 254L280.667 252L280 251L278.583 249L276.917 247L275.028 245L274.083 244L272.389 242L271.611 241L269.917 239.083L268 237.389L267 236.611L265 234.944L264 234.056L262 232.389L261 231.639L259 230.139L258 229.389L256 228.028L255 227.389L253 226.25L252 225.778L251 225.222L250 224.778L249 224.222L248 223.75L246 222.611L244 221.389L242 220.25L240 219.25L239.056 218.861L237.5 218.278L236 218L236 216L237.5 215.667L238.056 215.361L239.056 214.917L240 214.361L242 213.25L243 212.778L244 212.222L245 211.75L247 210.611L248 209.972L250 208.611L251 207.861L253 206.361L254 205.611L256 203.917L257.972 202.083L259.778 200.389L260.611 199.611L261.389 198.778L263.083 196.972L264.917 195L265.778 194L266.611 193L267.361 192L268.139 191L269.611 189L270.306 188L271 187L272.333 185L273.667 183L274.333 182L274.972 181L275.611 180L276.75 178L277.222 177L278.222 175L278.75 174L279.611 172L280.333 170L280.667 169L281.389 167L282.194 165L282.611 164L283.306 162L283.583 161L283.806 160L284.194 158L284.611 156L285 154L285.389 152L285.611 151L285.917 149L285.972 148L286 147L286 145L286 139L286 132L286 130L285.972 129L285.917 128L285.611 126L285.389 125L285 123L284.611 121L284.194 119L283.806 117L283.583 116L283 114L282.667 113L282 111L281.333 109L280.972 108L280.611 107L280.167 106L279.75 105L278.778 103L278.222 102L277.778 101L276.778 99L276.222 98L275.778 97L275.222 96L274.778 95L274.222 94L273.75 93L272.611 91L271.972 90L270.611 88L269.861 87L269.139 86L267.611 84L266.806 83L265.194 81L264.389 80L263.611 79L261.917 77L260 75.0278L259 74.0833L257 72.3889L256 71.6389L254 70.1389L253 69.3889L251 68L250 67.3333L249 66.6667L247 65.3889L246 64.8333L245 64.25L243 63.2222L242 62.7778L241 62.2222L239 61.2222L238 60.7778L237 60.2222L236 59.7778L235 59.2222L234 58.7778L233 58.25L231 57.3889L230 57.0278L229 56.6667L227 56L225 55.3333L224 55L222 54.4167L221 54.1945L219 53.8055L217 53.3889L216 53.1945L214 52.8055L213 52.6111L212 52.3889L210 52.0833L209 52.0278L207 52L205 52L196 52L168 52L52 52M436 52L436 65L476 65L475.556 66.5L475.333 67.0555L474.611 69L473.75 71L473.25 72L472.389 74L471.611 76L470.75 78L470.25 79L469.389 81L468.611 83L467.75 85L467.25 86L466.389 88L465.611 90L464.75 92L464.25 93L463.389 95L462.611 97L461.75 99L461.25 100L460.389 102L459.611 104L458.75 106L458.25 107L457.389 109L456.611 111L455.75 113L455.25 114L454.389 116L453.611 118L452.75 120L452.25 121L451.389 123L450.611 125L449.75 127L449.25 128L448.389 130L447.611 132L447.194 133L446.389 135L445.611 137L444.75 139L444.25 140L443.389 142L442.611 144L441.75 146L441.25 147L440.389 149L439.611 151L438.75 153L438.25 154L437.389 156L436.611 158L435.75 160L435.25 161L434.389 163L433.611 165L432.75 167L432.25 168L431.389 170L430.611 172L429.75 174L429.25 175L428.389 177L427.611 179L426.75 181L426.25 182L425.389 184L424.611 186L423.75 188L423.25 189L422.389 191L421.611 193L420.75 195L420.25 196L419.389 198L418.611 200L417.806 202L417.389 203L416.611 205L415.75 207L415.25 208L414.389 210L413.611 212L412.75 214L412.25 215L411.389 217L410.611 219L409.75 221L409.25 222L408.389 224L407.611 226L406.75 228L406.25 229L405.389 231L404.611 233L403.75 235L403.25 236L402.389 238L401.611 240L400.75 242L400.25 243L399.389 245L398.611 247L397.75 249L397.25 250L396.389 252L395.611 254L394.75 256L394.25 257L393.389 259L392.611 261L392.194 262L391.389 264L390.611 266L389.75 268L389.25 269L388.389 271L387.611 273L386.75 275L386.25 276L385.389 278L384.611 280L383.75 282L383.25 283L382.389 285L381.611 287L380.75 289L380.25 290L379.389 292L378.611 294L377.75 296L377.25 297L376.389 299L375.611 301L374.75 303L374.25 304L373.389 306L372.611 308L371.75 310L371.25 311L370.389 313L369.611 315L368.75 317L368.25 318L367.389 320L366.611 322L366.194 323L365.389 325L364.611 327L363.75 329L363.25 330L362.389 332L361.611 334L360.75 336L360.25 337L359.389 339L358.611 341L357.75 343L357.25 344L356.389 346L355.611 348L354.75 350L354.25 351L353.389 353L352.611 355L351.75 357L351.25 358L350.389 360L349.611 362L348.75 364L348.25 365L347.389 367L346.611 369L345.75 371L345.25 372L344.389 374L343.611 376L342.75 378L342.25 379L341.389 381L340.694 382.944L340.25 384.5L340 386L314 386L314 399L396 399L396 386L355 386L355.5 384.5L355.806 383.944L356.194 382.944L356.611 382L357.389 380L358.25 378L358.75 377L359.611 375L360.389 373L360.806 372L361.611 370L362.389 368L363.25 366L363.778 365L364.222 364L364.75 363L365.167 362L365.611 361L366.389 359L367.25 357L367.778 356L368.75 354L369.167 353L369.611 352L370.389 350L370.833 349L371.25 348L372.222 346L372.75 345L373.611 343L374.389 341L375.25 339L375.75 338L376.611 336L377.389 334L378.25 332L378.778 331L379.75 329L380.167 328L380.611 327L381.389 325L381.833 324L382.25 323L383.222 321L383.778 320L384.222 319L384.75 318L385.611 316L386.389 314L387.194 312L387.611 311L388.389 309L388.833 308L389.25 307L390.222 305L390.75 304L391.611 302L392.389 300L393.25 298L393.75 297L394.611 295L394.972 294L395.333 293L396.028 291L396.389 290L396.806 289L397.528 287.056L397.722 286.5L398 285L580 285L580.278 286.5L580.472 287.056L581.194 289L581.611 290L582 291L582.806 293L583.194 294L583.611 295L584.389 297L585.25 299L585.75 300L586.611 302L587.389 304L587.806 305L588.611 307L589.389 309L590.25 311L590.75 312L591.611 314L592.389 316L592.806 317L593.611 319L594.389 321L595.25 323L595.75 324L596.611 326L597.389 328L597.806 329L598.611 331L599.389 333L600.25 335L600.75 336L601.611 338L602.389 340L603.194 342L603.611 343L604.389 345L604.806 346L605.611 348L606.389 350L607.25 352L607.75 353L608.611 355L609.389 357L609.806 358L610.611 360L611.389 362L612.25 364L612.75 365L613.611 367L614.389 369L615.194 371L615.611 372L616.389 374L617.194 376L617.611 377L618 378L618.833 380L619.25 381L619.75 382L620.139 382.944L620.722 384.5L621 386L617 386L577 386L577 399L581 399L591 399L617 399L629 399L637 399L646 399L654 399L659.5 399L661 399L661 386L636 386L635.5 384.5L635.194 383.944L634.806 382.944L634.389 382L633.611 380L632.806 378L632.389 377L631.611 375L631.194 374L630.389 372L629.611 370L628.75 368L628.25 367L627.389 365L626.611 363L625.806 361L625.389 360L624.611 358L623.75 356L623.25 355L622.389 353L621.611 351L620.806 349L620.389 348L619.611 346L619.194 345L618.389 343L617.611 341L616.75 339L616.25 338L615.389 336L614.611 334L613.806 332L613.389 331L612.611 329L612.194 328L611.389 326L610.611 324L609.75 322L609.25 321L608.389 319L607.611 317L606.806 315L606.389 314L605.611 312L605.194 311L604.389 309L603.611 307L602.75 305L602.25 304L601.389 302L600.611 300L599.806 298L599.389 297L598.611 295L597.75 293L597.25 292L596.389 290L595.611 288L594.806 286L594.389 285L593.611 283L593.194 282L592.389 280L591.611 278L590.75 276L590.25 275L589.389 273L588.611 271L587.806 269L587.389 268L586.611 266L586.194 265L585.389 263L584.611 261L583.75 259L583.25 258L582.389 256L581.611 254L580.806 252L580.389 251L579.611 249L578.75 247L578.25 246L577.389 244L576.611 242L575.806 240L575.389 239L574.611 237L574.194 236L573.389 234L572.611 232L571.75 230L571.25 229L570.389 227L569.611 225L568.806 223L568.389 222L567.611 220L567.194 219L566.389 217L565.611 215L564.75 213L564.25 212L563.389 210L562.611 208L561.806 206L561.389 205L560.611 203L560.194 202L559.389 200L558.611 198L557.75 196L557.25 195L556.389 193L555.611 191L554.806 189L554.389 188L553.611 186L552.75 184L552.25 183L551.389 181L550.611 179L549.806 177L549.389 176L548.611 174L548.194 173L547.389 171L546.611 169L545.75 167L545.25 166L544.389 164L543.611 162L542.806 160L542.389 159L541.611 157L541.194 156L540.389 154L539.611 152L538.75 150L538.25 149L537.389 147L536.611 145L535.806 143L535.389 142L534.611 140L533.75 138L533.25 137L532.389 135L531.611 133L530.806 131L530.389 130L529.611 128L529.194 127L528.389 125L527.611 123L526.75 121L526.25 120L525.389 118L524.611 116L523.806 114L523.389 113L522.611 111L522.194 110L521.389 108L520.611 106L519.75 104L519.25 103L518.389 101L517.611 99L516.806 97L516.389 96L515.611 94L515.194 93L514.389 91L513.611 89L512.75 87L512.25 86L511.389 84L510.611 82L509.806 80L509.389 79L508.611 77L507.75 75L507.25 74L506.389 72L505.611 70L504.806 68L504.389 67L503.611 65L503.194 64L502.389 62L501.611 60L500.75 58L500.25 57L499.833 56L499 54.0555L498.806 53.5L498 52L436 52M677 52L677 65L678.5 65L685 65L687 65L697 65L698 65L699 65L709 65L711 65L714 65L722 65L722 100L722 102L722 136L722 176L722 183L722 200L722 205L722 213L722 217L722 218L722 231L722 237L722 256L722 257L722 266L722 270L722 272L722 280L722 284L722 386L714 386L710 386L704 386L702 386L701 386L695 386L693 386L692 386L690 386L685 386L684 386L675 386L675 399L691 399L696 399L704 399L709 399L713 399L717 399L722 399L727 399L735 399L737 399L740 399L748 399L752 399L756 399L757 399L758 399L761 399L765 399L769 399L779 399L780.944 399L784 399L784 386L779 386L774 386L772 386L768 386L765 386L757 386L755 386L746 386L736 386L736 312L736 290L736 285L736 283L736.028 281L736.333 279L736.722 278L738.083 276L738.944 275L740.611 273L741.389 272L743.083 270L744.917 268L745.778 267L747.389 265L748.222 264L749.944 262L751.611 260L752.389 259L754.083 257L755.917 255L756.778 254L758.389 252L760.083 250L761.917 248L762.778 247L764.389 245L766.056 243L766.944 242L768.611 240L770.222 238L771.083 237L772.917 235L773.778 234L775.389 232L777.056 230L777.944 229L779.611 227L781.222 225L782.083 224L783.917 222L784.778 221L786.389 219L788.028 217.056L788.972 216.056L791 214L791.528 215.5L791.917 216.056L792.472 217.056L793.167 218L793.861 219L794.611 220L796 222L797.333 224L799.333 227L800 228L801.389 230L802.861 232L803.611 233L804.306 234L805 235L805.667 236L807.667 239L809 241L810.389 243L811.139 244L812.611 246L814 248L815.333 250L818.667 255L820 257L821.389 259L822.861 261L823.611 262L824.306 263L825 264L826.333 266L829.667 271L831 273L831.694 274L832.389 275L833.139 276L834.611 278L836 280L837.333 282L839.333 285L840 286L840.694 287L841.389 288L842.139 289L843.611 291L845 293L845.667 294L847 296L848.389 298L849.139 299L850.611 301L852 303L853.333 305L855.333 308L856 309L857.389 311L858.861 313L859.611 314L860.306 315L861 316L861.667 317L863 319L864.389 321L865.139 322L866.611 324L867.306 325L868 326L868.667 327L870 329L870.694 330L871.389 331L872.139 332L873.611 334L874.306 335L875.694 337L876.389 338L877.139 339L878.611 341L879.306 342L880 343L880.667 344L882 346L882.694 347L883.389 348L884.139 349L885.611 351L886.306 352L887.694 354L888.389 355L889.139 356L890.611 358L891.306 359L892 360L892.667 361L894 363L894.694 364L895.389 365L896.139 366L897.611 368L898.306 369L899.694 371L900.389 372L901.139 373L902.611 375L904 377L905.333 379L906 380L907.389 382L908.111 382.944L908.778 383.944L909.25 384.5L910 386L897 386L889 386L888 386L886 386L885 386L884 386L881 386L879 386L878 386L870 386L866 386L860 386L860 399L862.056 399L865 399L869 399L871 399L876 399L878 399L882 399L883 399L884 399L886 399L892 399L896 399L902 399L934 399L942 399L946 399L951 399L957 399L957 393L957 386L953 386L949 386L946 386L943 386L941 386L938 386L936 386L934 386L933 386L932 386L927 386L926.472 384.5L926.111 383.944L925.583 382.944L924.972 382L923.611 380L922.861 379L921.389 377L920.694 376L919.306 374L918.611 373L917.139 371L916.389 370L915.694 369L915 368L913.667 366L913 365L912.306 364L911.611 363L910.861 362L909.389 360L908 358L907.333 357L906 355L904.611 353L903.139 351L902.389 350L901.694 349L900.306 347L899.611 346L898.139 344L897.389 343L896.694 342L896 341L894.667 339L894 338L893.306 337L892.611 336L891.139 334L890.389 333L889.694 332L888.306 330L887.611 329L886.139 327L885.389 326L884.694 325L884 324L882.667 322L882 321L881.306 320L880.611 319L879.139 317L878.389 316L877.694 315L876.306 313L875.611 312L874.139 310L873.389 309L872.694 308L871.306 306L870.611 305L869.861 304L868.389 302L867.694 301L867 300L865.667 298L865 297L864.306 296L863.611 295L862.139 293L861.389 292L860.694 291L859.306 289L858.611 288L857.139 286L856.389 285L855.694 284L855 283L853.667 281L853 280L852.306 279L851.611 278L850.861 277L849.389 275L848.694 274L847.306 272L846.611 271L845.861 270L844.389 268L843.694 267L843 266L842.333 265L841 263L840.306 262L839.611 261L838.139 259L837.389 258L836.694 257L835.306 255L834.611 254L833.139 252L832.389 251L831.694 250L830.306 248L829.611 247L828.861 246L827.389 244L826.694 243L826 242L824.667 240L824 239L823.306 238L822.611 237L821.861 236L820.389 234L819.694 233L818.306 231L817.611 230L816.861 229L815.389 227L814.694 226L814 225L812.667 223L812 222L811.306 221L810.611 220L809.139 218L808.389 217L807.694 216L806.306 214L805.611 213L804.861 212L803.389 210L802.694 209L801.361 207.111L800.639 206.306L800.25 205.778L799 205L799 203L800.25 202.222L800.667 201.694L802.222 199.972L803.083 199L804.917 197L805.778 196L807.389 194L809.083 192L810.972 190L811.917 189L813.611 187L815.222 185L816.083 184L817.917 182L818.778 181L820.389 179L822.083 177L823.917 175L824.778 174L826.389 172L827.222 171L828.083 170L829.917 168L830.778 167L831.611 166L833.222 164L834.083 163L835.917 161L836.778 160L838.389 158L840.083 156L841.917 154L842.778 153L844.389 151L845.222 150L846.083 149L847.917 147L848.778 146L849.611 145L851.222 143L852.083 142L853.917 140L855.611 138L857.222 136L858.083 135L859.917 133L860.778 132L862.389 130L864.083 128L865.917 126L866.778 125L868.389 123L870.083 121L871.917 119L872.778 118L874.389 116L875.222 115L876.083 114L877.972 112L878.917 111L880.611 109L882.222 107L883.083 106L884.917 104L885.778 103L886.611 102L888.222 100L889.083 99L890.917 97L891.778 96L893.389 94L895.083 92L896.917 90L897.778 89L899.389 87L901.083 85L902.917 83L903.778 82L905.389 80L906.222 79L907.083 78L908.917 76L909.778 75L910.611 74L912.222 72L913.083 71L914 70L915.667 68.0555L916.639 66.5L917 65L949 65L954 65L954 63.5L954 52L951.944 52L944 52L940 52L932 52L930 52L928 52L927 52L925 52L921 52L920 52L916 52L912 52L911 52L906 52L902 52L894 52L890 52L882 52L874 52L858 52L858 57L858 65L863 65L864 65L869 65L874 65L882 65L886 65L887 65L899 65L897.583 66.5L897.167 67.0555L896.333 68.0555L894.778 70L893.917 71L892.083 73L891.222 74L889.611 76L887.944 78L887.056 79L885.389 81L883.778 83L882.917 84L881.083 86L879.389 88L877.778 90L876.917 91L875.083 93L874.222 94L872.611 96L870.944 98L870.056 99L868.389 101L866.778 103L865.917 104L864.083 106L862.389 108L860.778 110L859.917 111L858.083 113L857.222 114L855.611 116L853.944 118L853.056 119L851.389 121L849.778 123L848.917 124L847.083 126L845.389 128L844.611 129L842.944 131L842.056 132L840.389 134L838.778 136L837.917 137L836.083 139L834.389 141L832.778 143L831.917 144L830.083 146L829.222 147L827.611 149L825.944 151L825.056 152L823.389 154L821.778 156L820.917 157L819.083 159L817.389 161L815.778 163L814.917 164L813.083 166L812.222 167L810.611 169L808.944 171L808.056 172L806.389 174L804.778 176L803.917 177L802.083 179L800.389 181L798.778 183L797.917 184L796.083 186L795.222 187L793.611 189L791.944 191L791.056 192L789.389 194L787.778 196L786.917 197L785.083 199L784.222 200L782.611 202L780.917 204L779.083 206L778.222 207L776.611 209L774.944 211L774.056 212L772.389 214L770.778 216L769.917 217L768.083 219L767.222 220L765.611 222L763.917 224L762.083 226L761.222 227L759.611 229L757.944 231L757.056 232L755.389 234L753.778 236L752.917 237L751.083 239L749.389 241L747.778 243L746.917 244L745.083 246L743.389 248L742.611 249L740.944 251L740.056 252L738.5 253.944L737.917 254.944L737.528 255.5L737 257L736.278 255.5L736.25 254.944L736.056 253.944L736.028 253L736 252L736 251L736 248L736 237L736 198L736 197L736 188L736 65L738.056 65L739.056 65L758 65L764 65L765 65L770 65L772 65L777 65L783 65L783 63.5L783 52L781.5 52L779 52L778 52L777 52L776 52L773 52L768 52L767 52L758 52L753 52L749 52L743 52L739 52L726 52L722 52L714 52L700 52L699 52L693 52L677 52M980 52L980 53.5L980 65L982.056 65L987 65L992 65L1000 65L1004 65L1008 65L1014 65L1018 65L1020 65L1022.94 65L1026 65L1026 385L1022 385L1017 385L1016 385L1014 385L1013 385L1007 385L1003 385L1000 385L996 385L988 385L986 385L982.056 385L979 385L979 399L984 399L994 399L1002 399L1008 399L1009 399L1017 399L1025 399L1030 399L1032 399L1033 399L1035 399L1036 399L1037 399L1039 399L1040 399L1042 399L1052 399L1053 399L1061 399L1062 399L1066 399L1069 399L1070 399L1072 399L1073 399L1075 399L1076 399L1084 399L1092 399L1093 399L1094 399L1096 399L1099 399L1104 399L1105 399L1109 399L1111 399L1112 399L1114 399L1130 399L1131 399L1135 399L1136 399L1137 399L1138 399L1140 399L1172 399L1175 399L1177 399L1178 399L1182 399L1186 399L1194 399L1195 399L1199 399L1201 399L1204 399L1206 399L1208 399L1209 399L1210 399L1214 399L1215 399L1217.94 399L1220 399L1220 331L1217.94 331L1216.94 331L1214 331L1213 331L1211 331L1210 331L1208.06 331L1206 331L1206 334.056L1206 339L1206 342L1206 385L1203.94 385L1202.94 385L1202 385L1201 385L1197 385L1196 385L1195 385L1191 385L1183 385L1181 385L1180 385L1176 385L1172 385L1171 385L1167 385L1166 385L1150 385L1149 385L1145 385L1137 385L1121 385L1119 385L1115 385L1110 385L1108 385L1107 385L1103 385L1101 385L1093 385L1091 385L1083 385L1082 385L1081 385L1080 385L1072 385L1064 385L1062 385L1060 385L1059 385L1057 385L1054 385L1046 385L1045 385L1043.06 385L1040 385L1040 225L1042.06 225L1044 225L1046 225L1048 225L1049 225L1050 225L1051 225L1052 225L1054 225L1055 225L1057 225L1058 225L1062 225L1070 225L1074 225L1076 225L1080 225L1096 225L1097 225L1099 225L1100 225L1102 225L1106 225L1108 225L1109 225L1110 225L1111 225L1115 225L1117 225L1133 225L1138 225L1140 225L1144 225L1152 225L1153 225L1154 225L1155 225L1163 225L1164 225L1165 225L1167 225L1169 225L1172 225L1174 225L1177 225L1179 225L1180 225L1181.94 225L1185 225L1185 260L1186.5 260L1188.06 260L1189 260L1193 260L1194.94 260L1198 260L1198 253L1198 246L1198 245L1198 240L1198 176L1195.94 176L1194.94 176L1193 176L1189 176L1188.06 176L1186.5 176L1185 176L1185 211L1182.94 211L1181.94 211L1179 211L1178 211L1176 211L1172 211L1171 211L1167 211L1166 211L1165 211L1164 211L1156 211L1152 211L1151 211L1147 211L1145 211L1144 211L1142 211L1141 211L1135 211L1119 211L1111 211L1110 211L1109 211L1108 211L1107 211L1103 211L1102 211L1094 211L1093 211L1089 211L1087 211L1086 211L1084 211L1081 211L1079 211L1077 211L1075 211L1074 211L1070 211L1069 211L1061 211L1060 211L1056 211L1055 211L1047 211L1046 211L1045 211L1043.06 211L1040 211L1040 65L1043.06 65L1045 65L1050 65L1055 65L1057 65L1058 65L1060 65L1062 65L1063 65L1064 65L1068 65L1070 65L1075 65L1076 65L1078 65L1079 65L1083 65L1085 65L1087 65L1088 65L1093 65L1094 65L1095 65L1096 65L1097 65L1098 65L1099 65L1103 65L1108 65L1109 65L1112 65L1116 65L1124 65L1126 65L1130 65L1131 65L1132 65L1136 65L1144 65L1145 65L1146 65L1150 65L1151 65L1153 65L1157 65L1159 65L1160 65L1161 65L1165 65L1169 65L1170 65L1178 65L1186 65L1187 65L1189 65L1194 65L1195 65L1200 65L1204 65L1204 73L1204 120L1205.5 120L1207.06 120L1209 120L1210 120L1212 120L1213 120L1214.94 120L1218 120L1218 52L1214 52L1213 52L1212 52L1206 52L1205 52L1201 52L1193 52L1189 52L1188 52L1186 52L1184 52L1176 52L1160 52L1156 52L1148 52L1144 52L1136 52L1135 52L1134 52L1128 52L1127 52L1126 52L1122 52L1121 52L1120 52L1116 52L1108 52L1107 52L1103 52L1102 52L1094 52L1093 52L1092 52L1088 52L1087 52L1086 52L1084 52L1083 52L1082 52L1080 52L1076 52L1075 52L1074 52L1070 52L1067 52L1062 52L1061 52L1060 52L1058 52L1056 52L1055 52L1054 52L1052 52L1049 52L1046 52L1041 52L1040 52L1039 52L1035 52L1031 52L1030 52L1026 52L1021 52L1016 52L1008 52L1004 52L996 52L988 52L980 52M1269 52L1269 66L1271.06 66L1274 66L1276 66L1277 66L1285 66L1286 66L1290 66L1294 66L1295 66L1298 66L1306 66L1310 66L1311.94 66L1312.94 66L1315 66L1315 95L1315 98L1315 113L1315 385L1312.94 385L1311.94 385L1311 385L1309 385L1308 385L1307 385L1291 385L1290 385L1288 385L1286 385L1278 385L1274 385L1273 385L1272 385L1271 385L1267 385L1267 399L1270.06 399L1271 399L1272 399L1274 399L1276 399L1277 399L1278 399L1294 399L1295 399L1300 399L1301 399L1309 399L1310 399L1311 399L1315 399L1316 399L1324 399L1325 399L1328 399L1329 399L1333 399L1334 399L1342 399L1344 399L1345 399L1347 399L1349 399L1353 399L1354 399L1362 399L1363 399L1371 399L1375 399L1376 399L1377 399L1381 399L1382 399L1383 399L1384 399L1388 399L1420 399L1424 399L1428 399L1429 399L1431 399L1433 399L1434 399L1436 398.972L1437 398.917L1439 398.611L1441 398.222L1442 398.083L1444 397.917L1445 397.778L1446 397.611L1448 397.222L1449 397.083L1451 396.917L1453 396.611L1454 396.389L1455 396.194L1457 395.806L1458 395.611L1459 395.389L1460 395.194L1462 394.806L1463 394.611L1465 394.139L1466 393.861L1467 393.639L1468 393.361L1470 392.861L1471 392.639L1472 392.361L1473 392.139L1475 391.611L1476 391.306L1478 390.667L1479 390.333L1481 389.667L1482 389.333L1484 388.667L1485 388.333L1487 387.667L1489 386.972L1490 386.611L1492 385.75L1493 385.222L1494 384.778L1495 384.25L1496 383.833L1497 383.389L1499 382.611L1500 382.167L1501 381.75L1502 381.222L1504 380.222L1505 379.75L1506 379.167L1507 378.611L1509 377.389L1511 376.194L1512 375.611L1514 374.389L1515 373.806L1516 373.167L1517 372.556L1518 371.833L1519 371.139L1521 369.611L1523 368L1525 366.389L1526 365.611L1528 363.917L1530 362.083L1532 360.389L1533 359.611L1535 357.917L1536 356.972L1537 356L1539 354L1540.97 352L1541.92 351L1543.61 349L1544.39 348L1545.19 347L1546.81 345L1547.61 344L1549.14 342L1549.86 341L1550.61 340L1551.31 339L1552.67 337L1553.33 336L1554 335L1555.33 333L1556.67 331L1557.33 330L1558.67 328L1559.97 326L1560.61 325L1561.75 323L1562.22 322L1562.78 321L1563.25 320L1563.83 319L1564.39 318L1565.61 316L1566.17 315L1566.75 314L1567.22 313L1567.75 312L1568.61 310L1569.39 308L1570.25 306L1570.75 305L1571.61 303L1572.39 301L1573.19 299L1573.61 298L1573.97 297L1574.33 296L1575 294L1575.67 292L1576 291L1576.61 289L1576.86 288L1577.14 287L1577.36 286L1577.64 285L1577.86 284L1578.14 283L1578.64 281L1578.86 280L1579.14 279L1579.61 277L1579.81 276L1580.19 274L1580.39 273L1580.61 272L1580.81 271L1581.19 269L1581.39 268L1581.61 267L1582 265L1582.39 263L1582.78 261L1582.92 260L1583.03 258L1583.08 257L1583.22 256L1583.61 254L1583.78 253L1583.92 252L1584.08 250L1584.22 249L1584.61 247L1584.92 245L1584.97 244L1585 243L1585 241L1585 235L1585 234L1585.03 232L1585.08 231L1585.39 229L1585.61 228L1585.92 226L1585.97 225L1585.92 223L1585.61 221L1585.22 219L1585.08 218L1585 216L1585 215L1585 213L1585 211L1585 206L1585 204L1584.97 202L1584.92 201L1584.61 199L1584.39 198L1584.08 196L1583.97 194L1583.92 193L1583.61 191L1583.22 189L1583.08 188L1582.92 186L1582.78 185L1582.61 184L1582.22 182L1582.08 181L1581.92 179L1581.61 177L1581.39 176L1581.19 175L1580.81 173L1580.61 172L1580.14 170L1579.86 169L1579.64 168L1579.36 167L1579.14 166L1578.61 164L1578.31 163L1577.69 161L1577.39 160L1576.86 158L1576.61 157L1576 155L1575.33 153L1574.67 151L1574.33 150L1573.61 148L1572.81 146L1572.39 145L1571.67 143L1571.33 142L1570.97 141L1570.61 140L1569.75 138L1569.25 137L1568.39 135L1567.61 133L1567.17 132L1566.75 131L1565.78 129L1565.22 128L1564.78 127L1563.78 125L1563.22 124L1562.78 123L1562.22 122L1561.22 120L1560.75 119L1560.17 118L1559.61 117L1558.33 115L1557.67 114L1556.33 112L1555 110L1554.33 109L1553.67 108L1553 107L1551.58 105L1550 103L1548.39 101L1547.61 100L1545.92 98L1544.97 97L1543 95L1542 94L1540 92L1538 90L1536 88.0278L1535 87.0833L1533 85.3889L1532 84.6111L1530 82.9445L1529 82.0555L1527 80.4167L1526 79.6945L1524 78.3333L1522 77L1520 75.6667L1519 75.0278L1518 74.3889L1517 73.8055L1515 72.6111L1513 71.3889L1512 70.8333L1511 70.25L1510 69.7778L1508 68.7778L1507 68.2222L1506 67.7778L1505 67.2222L1504 66.7778L1503 66.2222L1502 65.7778L1500 64.7778L1499 64.25L1498 63.8333L1497 63.3889L1495 62.6111L1493 61.8055L1492 61.3889L1491 61.0278L1490 60.6667L1489 60.3333L1487 59.6667L1485 59L1484 58.6945L1483 58.3889L1481 57.8611L1480 57.6389L1479 57.3611L1478 57.1389L1476 56.6111L1475 56.3055L1473 55.6945L1472 55.4167L1470 55.0833L1468 54.9167L1467 54.7778L1465 54.3889L1464 54.2222L1463 54.0833L1461 53.9167L1460 53.7778L1458 53.3889L1456 53.0833L1455 53.0278L1453 53L1452 52.9722L1451 52.9167L1449 52.6111L1448 52.3889L1446 52.0833L1445 52.0278L1443 52L1442 52L1440 52L1436 52L1434 52L1432 52L1431 52L1430 52L1398 52L1394 52L1390 52L1389 52L1381 52L1365 52L1357 52L1353 52L1345 52L1344 52L1343 52L1342 52L1338 52L1334 52L1331 52L1328 52L1327 52L1325 52L1324 52L1320 52L1312 52L1308 52L1307 52L1306 52L1304 52L1303 52L1301 52L1300 52L1296 52L1295 52L1287 52L1279 52L1278 52L1274 52L1273 52L1272.06 52L1270.5 52L1269 52M111 211L111 65L177 65L193 65L198 65L200 65L201 65.0278L202 65.0833L204 65.3889L205 65.6111L207 65.9167L209 66L211 66.0833L213 66.3889L214 66.6389L216 67.1389L217 67.3611L218 67.6389L219 67.8611L221 68.3889L223 69L224 69.3333L226 70.0278L227 70.3889L229 71.25L230 71.7778L231 72.2222L232 72.7778L233 73.2222L234 73.7778L235 74.2222L236 74.7778L237 75.25L239 76.3889L240 77.0278L242 78.3333L243 79L245 80.3889L246 81.1389L248 82.6389L249 83.3889L251 85.0833L252 86.0278L253.917 88L255.583 90L257 92L258.333 94L259.667 96L260.333 97L260.972 98L261.611 99L262.75 101L263.25 102L264.389 104L265.583 106L266.583 108L267.333 110L267.667 111L268.333 113L269.333 116L269.667 117L270 118L270.583 120L270.806 121L271.194 123L271.611 125L271.917 127L272.083 129L272.389 131L272.611 132L272.917 134L272.972 135L273 137L273 138L272.972 140L272.917 141L272.611 143L272.389 144L272.083 146L272 148L271.917 150L271.611 152L271.361 153L270.861 155L270.639 156L270.361 157L270.139 158L269.611 160L269 162L268.667 163L267.972 165L267.611 166L266.75 168L266.222 169L265.778 170L265.222 171L264.778 172L263.75 174L263.167 175L262.611 176L261.389 178L260.194 180L259.611 181L258.306 183L257.583 184L255.917 186L254 188L252 190L250 192L248 193.917L246 195.583L245 196.306L243 197.611L242 198.194L240 199.389L239 200L237 201.194L236 201.806L235 202.389L233 203.611L231 204.722L229 205.611L228 205.972L227 206.333L226 206.667L224 207.389L223 207.806L221 208.528L220 208.778L218 209.194L216 209.611L214 210L212 210.389L211 210.611L209 210.917L208 210.972L207 211L205 211L199 211L180 211L111 211M1329 385L1329 381L1329 372L1329 336L1329 314L1329 302L1329 301L1329 297L1329 293L1329 290L1329 278L1329 265L1329 251L1329 212L1329 211L1329 204L1329 66L1330.5 66L1332.06 66L1333 66L1334 66L1338 66L1339 66L1340 66L1341 66L1342 66L1343 66L1347 66L1350 66L1352 66L1368 66L1369 66L1377 66L1378 66L1379 66L1383 66L1385 66L1390 66L1398 66L1399 66L1415 66L1417 66L1433 66L1437 66L1438 66L1440 66L1441 66L1445 66L1447 66L1449 66.0278L1450 66.0833L1452 66.3889L1453 66.6111L1454 66.8055L1456 67.1945L1457 67.3889L1459 67.7778L1460 67.9167L1461 67.9722L1463 68.0833L1465 68.3889L1467 68.8055L1469 69.1945L1470 69.3889L1472 69.8611L1473 70.1389L1475 70.6111L1476 70.8055L1478 71.1945L1479 71.4167L1481 72L1483 72.6667L1485 73.3333L1487 74L1488 74.3333L1490 75L1491 75.3333L1492 75.6667L1493 76.0278L1494 76.3889L1496 77.25L1497 77.7778L1498 78.2222L1499 78.7778L1500 79.2222L1501 79.7778L1502 80.2222L1503 80.7778L1504 81.2222L1505 81.7778L1506 82.25L1508 83.3889L1509 84.0278L1511 85.3333L1512 86L1515 88L1517 89.3333L1518 90L1520 91.3889L1521 92.1389L1523 93.6389L1524 94.3889L1526 96.0833L1528 98L1529 99L1531 101L1533 103L1534.97 105L1535.92 106L1537.61 108L1538.39 109L1540 111L1540.78 112L1541.53 113L1542.17 114L1543.39 116L1544.67 118L1545.33 119L1546.61 121L1547.19 122L1548.39 124L1549.61 126L1550.17 127L1550.75 128L1551.22 129L1552.22 131L1552.78 132L1553.22 133L1553.78 134L1554.22 135L1555.22 137L1555.75 138L1556.17 139L1556.61 140L1557.39 142L1558.19 144L1558.61 145L1559.39 147L1559.81 148L1560.17 149L1560.56 150L1561.14 152L1561.39 153L1561.69 154L1562.31 156L1562.61 157L1563.14 159L1563.36 160L1563.64 161L1564.14 163L1564.36 164L1564.64 165L1565.14 167L1565.36 168L1565.64 169L1565.86 170L1566.14 171L1566.61 173L1566.81 174L1567.19 176L1567.61 178L1567.94 180L1568.06 181L1568.39 183L1568.61 184L1568.81 185L1569.19 187L1569.39 188L1569.78 190L1569.92 191L1569.97 192L1570.08 194L1570.22 195L1570.61 197L1570.92 199L1570.97 200L1571 202L1571.03 203L1571.08 204L1571.39 206L1571.61 207L1571.92 209L1571.97 210L1572 212L1572 213L1572 215L1572 216L1572 217L1572 219L1572 226L1572 227L1572 228L1572 229L1572 231L1572 233L1572 237L1572 238L1572 240L1572 241L1571.97 243L1571.92 244L1571.61 246L1571.39 247L1571.08 249L1570.97 251L1570.92 252L1570.61 254L1570.22 256L1570.08 257L1569.92 259L1569.78 260L1569.39 262L1569.19 263L1568.81 265L1568.61 266L1568.39 267L1568.19 268L1567.81 270L1567.61 271L1567.39 272L1567.19 273L1566.81 275L1566.58 276L1566.31 277L1565.69 279L1565.39 280L1565.14 281L1564.61 283L1564.31 284L1563.69 286L1563.39 287L1563.14 288L1562.56 290L1562.17 291L1561.39 293L1560.61 295L1559.81 297L1559.39 298L1558.61 300L1557.81 302L1557.39 303L1556.61 305L1556.17 306L1555.75 307L1555.22 308L1554.22 310L1553.78 311L1553.22 312L1552.78 313L1552.22 314L1551.78 315L1550.75 317L1550.17 318L1549.61 319L1548.39 321L1547.25 323L1546.75 324L1545.56 326L1544.83 327L1543.36 329L1542.64 330L1541.86 331L1540.36 333L1539.61 334L1537.92 336L1536.08 338L1534.39 340L1533.61 341L1531.92 343L1530 344.917L1528 346.611L1526 348.222L1525 349.083L1523 350.917L1521 352.611L1520 353.361L1518 354.861L1517 355.639L1516 356.361L1514 357.861L1513 358.611L1512 359.306L1511 360L1509 361.333L1508 361.972L1507 362.611L1506 363.194L1504 364.389L1502 365.667L1501 366.333L1499 367.611L1498 368.167L1497 368.722L1496 369.167L1495 369.611L1493 370.389L1492 370.833L1491 371.25L1490 371.778L1489 372.222L1488 372.778L1487 373.222L1486 373.75L1484 374.611L1483 374.972L1482 375.333L1481 375.667L1480 376L1478 376.667L1477 377L1475 377.667L1474 378L1473 378.306L1472 378.611L1470 379.139L1469 379.361L1468 379.639L1467 379.861L1466 380.139L1464 380.611L1463 380.806L1461 381.194L1460 381.389L1458 381.861L1457 382.139L1456 382.361L1455 382.611L1453 382.917L1451 383.083L1449 383.389L1448 383.611L1446 383.917L1445 383.972L1443 384.028L1442 384.083L1440 384.389L1439 384.611L1437 384.917L1436 384.972L1434 385L1432 385L1424 385L1416 385L1415 385L1411 385L1409 385L1401 385L1399 385L1395 385L1393 385L1392 385L1389 385L1385 385L1382 385L1379 385L1376 385L1373 385L1369 385L1365 385L1364 385L1363 385L1362 385L1360 385L1356 385L1355 385L1353 385L1345 385L1341 385L1333 385L1332.06 385L1331.06 385L1329 385M489 71L490 71.7778L490.222 72.3055L490.806 73.1111L491.75 75L492.167 76L492.611 77L493.389 79L493.806 80L494.611 82L495.389 84L496.25 86L496.75 87L497.611 89L498.389 91L499.25 93L499.75 94L500.611 96L501.389 98L501.806 99L502.611 101L503.389 103L504.25 105L504.75 106L505.611 108L506.389 110L507.25 112L507.75 113L508.611 115L509.389 117L509.806 118L510.611 120L511.389 122L512.25 124L512.75 125L513.611 127L514.389 129L514.806 130L515.611 132L516.389 134L517.25 136L517.75 137L518.611 139L519.389 141L520.25 143L520.75 144L521.611 146L522.389 148L522.806 149L523.611 151L524.389 153L525.25 155L525.75 156L526.611 158L527.389 160L527.806 161L528.611 163L529.389 165L530.25 167L530.75 168L531.611 170L532.389 172L533.25 174L533.75 175L534.611 177L535.389 179L535.806 180L536.611 182L537.389 184L538.25 186L538.75 187L539.611 189L540.389 191L540.806 192L541.611 194L542.389 196L543.25 198L543.75 199L544.611 201L545.389 203L546.25 205L546.75 206L547.611 208L548.389 210L548.806 211L549.611 213L550.389 215L551.25 217L551.75 218L552.611 220L553.389 222L553.806 223L554.611 225L555.389 227L556.25 229L556.75 230L557.611 232L558.389 234L559.25 236L559.75 237L560.611 239L561.389 241L561.806 242L562.611 244L563.389 246L564.25 248L564.75 249L565.611 251L566.389 253L566.806 254L567.611 256L568.389 258L569.25 260L569.75 261L570.611 263L571.389 265L572.194 267L572.611 268L573.333 269.944L573.556 270.5L574 272L570.944 272L562 272L557 272L549 272L518 272L517 272L404 272L404.083 270.5L404.472 268.944L405.25 267L405.75 266L406.611 264L407.389 262L408.25 260L408.75 259L409.611 257L410.389 255L410.806 254L411.611 252L412.389 250L413.25 248L413.75 247L414.611 245L415.389 243L416.25 241L416.75 240L417.611 238L418.389 236L419.25 234L419.75 233L420.611 231L421.389 229L422.25 227L422.75 226L423.611 224L424.389 222L424.806 221L425.611 219L426.389 217L427.25 215L427.75 214L428.611 212L429.389 210L430.25 208L430.75 207L431.611 205L432.389 203L433.25 201L433.75 200L434.611 198L435.389 196L436.25 194L436.75 193L437.611 191L438.389 189L438.806 188L439.611 186L440.389 184L441.25 182L441.75 181L442.611 179L443.389 177L444.25 175L444.75 174L445.611 172L446.389 170L447.25 168L447.75 167L448.611 165L449.389 163L450.25 161L450.75 160L451.611 158L452.389 156L452.806 155L453.611 153L454.389 151L455.25 149L455.75 148L456.611 146L457.389 144L458.25 142L458.75 141L459.611 139L460.389 137L461.25 135L461.75 134L462.611 132L463.389 130L464.25 128L464.75 127L465.611 125L466.389 123L467.25 121L467.75 120L468.611 118L469.389 116L470.194 114L470.611 113L471.389 111L472.25 109L472.75 108L473.611 106L474.389 104L475.25 102L475.75 101L476.611 99L477.389 97L478.25 95L478.75 94L479.611 92L480.389 90L481.25 88L481.75 87L482.611 85L483.389 83L483.806 82L484.611 80L485.389 78L486.25 76L486.75 75L487.583 73.1111L488 72.3055L488.194 71.7778L489 71M111 385L111 225L184 225L201 225L207 225L209 225L210 225.028L211 225.083L213 225.389L214 225.611L215 225.778L216 225.944L217 226.056L219 226.389L220 226.639L222 227.139L223 227.389L224 227.694L225 228L227 228.667L228 229.028L229 229.389L231 230.25L232 230.75L234 231.611L236 232.389L238 233.278L240 234.389L242 235.611L244 236.806L245 237.389L246 238.028L247 238.667L249 240L251 241.333L252 242L254 243.417L256 245.056L257 245.944L258.972 247.611L259.917 248.389L261.611 250.083L262.389 251.028L264.056 253L264.944 254L266.583 256L267.306 257L268.667 259L269.972 261L270.611 262L271.167 263L271.75 264L272.222 265L273.222 267L273.778 268L274.222 269L274.778 270L275.222 271L275.778 272L276.75 274L277.167 275L277.611 276L278.389 278L279.194 280L279.611 281L280.306 283L280.583 284L280.944 286L281.056 287L281.389 289L281.639 290L281.861 291L282.139 292L282.361 293L282.611 294L282.917 296L282.972 297L283 298L283 300L283 305L283 308L283 310L282.972 312L282.917 313L282.611 315L282.389 316L282.056 318L281.944 319L281.611 321L281.194 323L280.806 325L280.583 326L280 328L279.667 329L279.333 330L278.667 332L277.667 335L277.333 336L276.611 338L276.167 339L275.75 340L275.222 341L274.75 342L273.611 344L272.972 345L272.333 346L271 348L269.667 350L269 351L267.583 353L265.944 355L265.056 356L263.389 358L262.611 359L260.917 361L259.972 362L258 364L256 365.972L255 366.917L253 368.583L252 369.306L250 370.694L249 371.389L247 372.833L246 373.556L244 374.75L243 375.222L242 375.778L241 376.222L240 376.778L239 377.222L237 378.222L236 378.75L235 379.167L234 379.611L232 380.306L231 380.611L230 380.861L228 381.389L227 381.694L225 382.306L224 382.611L222 383.139L221 383.361L220 383.611L218 383.944L217 384.056L215 384.389L214 384.611L212 384.917L211 384.972L210 385L208 385L203 385L186 385L111 385z"/>
</svg>
